HIERARCHY
ROOT Hips
{
 OFFSET 0.000000 0.000000 0.000000
 CHANNELS 6 Xposition Yposition Zposition Yrotation Xrotation Zrotation
 JOINT Chest
 {
  OFFSET 0.000000 9.585900 0.002600
  CHANNELS 3 Yrotation Xrotation Zrotation
  JOINT Chest2
  {
   OFFSET 0.000000 9.601200 -0.005300
   CHANNELS 3 Yrotation Xrotation Zrotation
   JOINT Chest3
   {
    OFFSET 0.000000 9.561800 0.000000
    CHANNELS 3 Yrotation Xrotation Zrotation
    JOINT Chest4
    {
     OFFSET 0.000000 9.552100 0.000000
     CHANNELS 3 Yrotation Xrotation Zrotation
     JOINT Neck
     {
      OFFSET 0.000000 14.453000 0.000000
      CHANNELS 3 Yrotation Xrotation Zrotation
      JOINT Head
      {
       OFFSET 0.000000 8.936500 -0.011300
       CHANNELS 3 Yrotation Xrotation Zrotation
       End Site
       {
        OFFSET 0.000000 17.073600 -0.006000
       }
      }
     }
     JOINT RightCollar
     {
      OFFSET -2.921100 9.558500 0.000000
      CHANNELS 3 Yrotation Xrotation Zrotation
      JOINT RightShoulder
      {
       OFFSET -13.519700 0.000000 0.000000
       CHANNELS 3 Yrotation Xrotation Zrotation
       JOINT RightElbow
       {
        OFFSET 0.000000 -29.696600 0.000000
        CHANNELS 3 Yrotation Xrotation Zrotation
        JOINT RightWrist
        {
         OFFSET 0.000000 -24.004700 0.000000
         CHANNELS 3 Yrotation Xrotation Zrotation
         End Site
         {
          OFFSET 0.000000 -17.728500 0.000000
         }
        }
       }
      }
     }
     JOINT LeftCollar
     {
      OFFSET 2.921100 9.558500 0.000000
      CHANNELS 3 Yrotation Xrotation Zrotation
      JOINT LeftShoulder
      {
       OFFSET 13.519700 0.000000 0.000000
       CHANNELS 3 Yrotation Xrotation Zrotation
       JOINT LeftElbow
       {
        OFFSET 0.000000 -29.696600 0.000000
        CHANNELS 3 Yrotation Xrotation Zrotation
        JOINT LeftWrist
        {
         OFFSET 0.000000 -24.004700 0.000000
         CHANNELS 3 Yrotation Xrotation Zrotation
         End Site
         {
          OFFSET 0.000000 -17.728500 0.000000
         }
        }
       }
      }
     }
    }
   }
  }
 }
 JOINT RightHip
 {
  OFFSET -7.771700 -0.012900 -0.001300
  CHANNELS 3 Yrotation Xrotation Zrotation
  JOINT RightKnee
  {
   OFFSET 0.000000 -40.869800 0.001200
   CHANNELS 3 Yrotation Xrotation Zrotation
   JOINT RightAnkle
   {
    OFFSET 0.000000 -39.717900 0.002100
    CHANNELS 3 Yrotation Xrotation Zrotation
    JOINT RightToe
    {
     OFFSET 0.000000 -4.965400 11.033500
     CHANNELS 3 Yrotation Xrotation Zrotation
     End Site
     {
      OFFSET 0.000000 -1.423100 5.872300
     }
    }
   }
  }
 }
 JOINT LeftHip
 {
  OFFSET 7.771700 -0.012900 -0.001300
  CHANNELS 3 Yrotation Xrotation Zrotation
  JOINT LeftKnee
  {
   OFFSET 0.000000 -40.869800 0.001200
   CHANNELS 3 Yrotation Xrotation Zrotation
   JOINT LeftAnkle
   {
    OFFSET 0.000000 -39.717900 0.002100
    CHANNELS 3 Yrotation Xrotation Zrotation
    JOINT LeftToe
    {
     OFFSET 0.000000 -4.965400 11.033500
     CHANNELS 3 Yrotation Xrotation Zrotation
     End Site
     {
      OFFSET 0.000000 -1.423100 5.872300
     }
    }
   }
  }
 }
}
MOTION
Frames: 12
Frame Time: 0.008333
29.313266 49.756950 64.069722 172.356198 -34.496970 -8.221216 6.647747 18.700141 6.820512 0.738221 2.484494 0.606066 1.268028 3.930234 1.002424 5.683940 16.253385 4.800124 -1.777106 16.475088 1.570664 -3.862691 -5.125404 3.563085 -0.603820 -3.026769 -3.349342 6.941568 -11.910664 -1.110158 20.771284 -72.633630 -36.009346 0.414563 -8.400074 3.931526 -10.160834 -1.909804 -1.247859 0.836829 -10.317583 -0.897379 -76.905521 -67.223486 86.494977 13.496989 -6.112593 -4.309750 0.420980 -45.532127 10.940684 -109.456287 80.798456 -96.747641 -0.805640 -14.142810 -3.188978 0.087108 1.071667 0.046048 -11.121671 -49.775231 18.706869 -157.622982 80.427070 -164.377669 3.089519 -17.754499 6.751080 -0.381752 -0.634688 -0.136789
29.310572 49.764993 64.061307 172.366527 -34.468447 -8.194992 6.613581 18.729340 6.783966 0.741863 2.473304 0.603051 1.257988 3.938749 1.001632 5.670567 16.261845 4.785693 -1.756074 16.460256 1.553375 -3.808497 -5.152480 3.509264 -0.580721 -3.091052 -3.366461 6.949726 -11.910490 -1.140518 20.517283 -72.497505 -35.731536 0.493801 -8.298942 4.021536 -10.136061 -1.946788 -1.231993 0.960555 -10.077726 -0.908618 -77.257259 -67.091599 86.746099 13.318594 -6.066431 -4.406979 0.341825 -45.555285 10.935557 -109.663067 80.781856 -96.996200 -0.745681 -14.161866 -3.218199 0.062382 1.059890 0.040375 -11.117866 -49.803809 18.698330 -157.532712 80.414584 -164.320346 3.044103 -17.766908 6.769380 -0.362124 -0.630633 -0.128137
29.304724 49.770223 64.056578 172.356500 -34.415461 -8.151153 6.593472 18.736444 6.737510 0.750219 2.431979 0.600645 1.243034 3.978734 1.001153 5.656353 16.271616 4.769475 -1.737339 16.443819 1.540468 -3.762465 -5.183069 3.466211 -0.550023 -3.154395 -3.370815 6.953561 -11.913998 -1.192040 20.240044 -72.350384 -35.428734 0.562897 -8.184410 4.122975 -10.195254 -1.899582 -1.171792 1.172655 -9.926897 -0.956990 -77.603228 -67.019220 86.996095 13.170327 -6.018784 -4.482247 0.275738 -45.608597 10.920442 -109.832902 80.779344 -97.225430 -0.667454 -14.167494 -3.227522 0.007101 1.049785 0.018663 -11.084042 -49.864913 18.660305 -157.550008 80.410814 -164.349668 3.000452 -17.776241 6.782928 -0.342992 -0.623471 -0.121685
29.298371 49.775922 64.051722 172.356390 -34.366120 -8.117681 6.572283 18.786664 6.702113 0.751191 2.392450 0.593691 1.231008 4.024461 0.999302 5.649643 16.242732 4.751137 -1.721029 16.425494 1.529938 -3.729216 -5.218361 3.441751 -0.544436 -3.235935 -3.402622 6.983239 -11.907077 -1.213181 19.962059 -72.198258 -35.131722 0.629336 -8.050563 4.228549 -10.231755 -1.890969 -1.134600 1.343636 -9.748120 -0.990084 -77.943328 -66.968523 87.265136 13.037787 -5.967885 -4.551315 0.222574 -45.657126 10.901031 -109.977963 80.767453 -97.417043 -0.593570 -14.178428 -3.238000 -0.044304 1.046041 0.004374 -11.062237 -49.919852 18.622590 -157.643682 80.412453 -164.454350 2.962179 -17.787562 6.796051 -0.341205 -0.614988 -0.119981
29.292867 49.783362 64.045200 172.363931 -34.333351 -8.096658 6.552981 18.825046 6.680256 0.750636 2.381980 0.588284 1.225063 4.045422 1.000016 5.635635 16.243775 4.735383 -1.707470 16.404292 1.519710 -3.701203 -5.258822 3.418845 -0.570564 -3.342574 -3.480073 7.033052 -11.884756 -1.190780 19.662993 -72.051752 -34.813774 0.698505 -7.895620 4.338481 -10.255526 -1.891459 -1.108115 1.477648 -9.572372 -1.026187 -78.275411 -66.910669 87.567236 12.902743 -5.916462 -4.636863 0.198626 -45.688727 10.880047 -110.083246 80.743570 -97.543916 -0.559959 -14.199543 -3.239483 -0.060945 1.051749 -0.004972 -11.036189 -49.957017 18.581234 -157.728607 80.414771 -164.542254 2.936412 -17.799585 6.804262 -0.331524 -0.609009 -0.118887
29.287167 49.791165 64.038338 172.370656 -34.305896 -8.073566 6.533546 18.828660 6.652993 0.740686 2.454161 0.596455 1.227921 4.010544 0.992207 5.622290 16.261302 4.722507 -1.697203 16.380082 1.509658 -3.679674 -5.304155 3.403371 -0.568161 -3.439837 -3.530617 7.052986 -11.865475 -1.201243 19.344367 -71.915672 -34.472469 0.769382 -7.728664 4.456444 -10.281200 -1.881324 -1.081896 1.590572 -9.415052 -1.070346 -78.605418 -66.822153 87.917011 12.753197 -5.862522 -4.770341 0.179176 -45.714208 10.855949 -110.198627 80.727914 -97.683213 -0.524057 -14.224699 -3.233214 -0.086316 1.061007 -0.020306 -11.003121 -49.987900 18.535163 -157.814486 80.417753 -164.631361 2.910544 -17.811986 6.814712 -0.315312 -0.604044 -0.123875
29.282329 49.800103 64.029913 172.379706 -34.292432 -8.050693 6.513827 18.846939 6.626897 0.734234 2.496524 0.602855 1.228957 4.003857 0.987697 5.613140 16.279791 4.710939 -1.691382 16.352720 1.499516 -3.665074 -5.352060 3.400557 -0.564894 -3.539918 -3.586644 7.059169 -11.839916 -1.207698 19.005930 -71.795591 -34.101647 0.843160 -7.559049 4.581612 -10.312864 -1.857267 -1.054823 1.694132 -9.274815 -1.123006 -78.949370 -66.680576 88.325794 12.583178 -5.799004 -4.975410 0.097816 -45.716447 10.877106 -110.290044 80.722046 -97.845086 -0.495521 -14.248695 -3.222322 -0.113460 1.066548 -0.038048 -10.967112 -50.004101 18.483307 -157.915541 80.421490 -164.738075 2.897191 -17.822078 6.823233 -0.319435 -0.602208 -0.122112
29.281660 49.808976 64.022649 172.386705 -34.277828 -8.043185 6.498656 18.885191 6.621008 0.737437 2.486199 0.601438 1.227538 4.025366 0.991195 5.607142 16.298649 4.700614 -1.689861 16.322707 1.488194 -3.654836 -5.401298 3.379262 -0.560125 -3.639123 -3.649045 7.051681 -11.808320 -1.208777 18.667372 -71.699038 -33.720483 0.921806 -7.387568 4.715221 -10.348398 -1.815569 -1.027039 1.799946 -9.153084 -1.191253 -79.326988 -66.472636 88.805506 12.391130 -5.717455 -5.271173 0.083726 -45.729889 10.878004 -110.378128 80.713060 -97.947087 -0.492648 -14.273306 -3.213603 -0.122041 1.076157 -0.046432 -10.947810 -50.022764 18.454245 -157.969995 80.416985 -164.785810 2.887639 -17.830440 6.826037 -0.317368 -0.602429 -0.123466
29.283985 49.816076 64.018503 172.375843 -34.247396 -8.033611 6.499663 18.900695 6.625042 0.742002 2.453400 0.591968 1.222308 4.072795 1.005144 5.601186 16.317034 4.689822 -1.685246 16.269516 1.474031 -3.656507 -5.434208 3.358703 -0.546487 -3.736655 -3.719982 7.035479 -11.777322 -1.190187 18.368420 -71.616044 -33.379599 1.001927 -7.213407 4.868269 -10.377691 -1.757398 -1.000080 1.915308 -9.048205 -1.280184 -79.752185 -66.202232 89.360247 12.180637 -5.611510 -5.662874 0.076711 -45.762341 10.892500 -110.410053 80.703655 -97.989808 -0.490246 -14.293005 -3.211693 -0.127416 1.089535 -0.048863 -10.945171 -50.055450 18.454582 -157.998933 80.411730 -164.816782 2.891316 -17.840606 6.825359 -0.325982 -0.601661 -0.126770
29.286615 49.824303 64.011961 172.382934 -34.232352 -8.020177 6.484000 18.937241 6.623858 0.741956 2.458372 0.590754 1.217415 4.080905 1.005308 5.593626 16.334605 4.678601 -1.677718 16.216755 1.455876 -3.658629 -5.470931 3.335238 -0.518414 -3.834170 -3.799732 7.012519 -11.755154 -1.139950 18.131214 -71.528901 -33.110151 1.081059 -7.042090 5.054173 -10.395852 -1.691575 -0.974645 2.052760 -8.952378 -1.391977 -80.219772 -65.894799 89.971899 11.956229 -5.492002 -6.134088 0.068444 -45.779327 10.911198 -110.470369 80.688039 -98.072524 -0.528408 -14.325616 -3.208388 -0.109396 1.106126 -0.035551 -10.932135 -50.071865 18.437004 -158.025041 80.408202 -164.846972 2.858675 -17.850365 6.837692 -0.308997 -0.597657 -0.127475
29.291287 49.831236 64.007843 172.390266 -34.203833 -8.007618 6.452648 19.013341 6.640679 0.741029 2.467583 0.588776 1.227035 4.034979 0.981119 5.584525 16.351047 4.668347 -1.690135 16.233668 1.440828 -3.648354 -5.579803 3.273407 -0.489108 -3.919464 -3.853285 6.966167 -11.663078 -1.201342 17.753636 -71.554595 -32.666959 1.152478 -6.883740 5.282994 -10.409187 -1.629907 -0.950641 2.230243 -8.853293 -1.527978 -80.729492 -65.581516 90.630051 11.720924 -5.376982 -6.661417 0.089677 -45.821401 10.934846 -110.549136 80.668865 -98.154824 -0.639256 -14.358936 -3.206653 -0.034112 1.123142 -0.006767 -10.943843 -50.095274 18.442209 -158.033795 80.407786 -164.881751 2.857581 -17.872968 6.842017 -0.321120 -0.582392 -0.121599
29.296871 49.837453 64.005326 172.380518 -34.169533 -7.980795 6.439100 19.031682 6.631600 0.740123 2.471347 0.587934 1.229310 4.027885 0.974814 5.571947 16.377997 4.665875 -1.689812 16.205548 1.421141 -3.641809 -5.632794 3.237825 -0.455455 -4.001454 -3.909068 6.914108 -11.577385 -1.238946 17.494447 -71.593388 -32.351020 1.207000 -6.726864 5.564592 -10.419949 -1.576927 -0.929046 2.454022 -8.742837 -1.686170 -81.285105 -65.276950 91.337164 11.491303 -5.279769 -7.232794 0.118545 -45.861333 10.912427 -110.622721 80.676660 -98.227694 -0.636321 -14.379712 -3.202391 -0.049703 1.137262 -0.016699 -10.928311 -50.131221 18.431158 -158.015893 80.405592 -164.873551 2.848470 -17.884807 6.846628 -0.315505 -0.584958 -0.125854
